<?xml version="1.0" encoding="UTF-8"?>
<svg xmlns="http://www.w3.org/2000/svg" xmlns:xlink="http://www.w3.org/1999/xlink" width="25px" height="25px" viewBox="0 0 25 25" version="1.1">
<g id="surface1">
<path style=" stroke:none;fill-rule:nonzero;fill:rgb(0%,0%,0%);fill-opacity:1;" d="M 16.203125 13.792969 L 24.835938 7.296875 L 24.835938 6.917969 C 24.835938 6.527344 24.519531 6.214844 24.128906 6.214844 L 8.273438 6.214844 C 7.882812 6.214844 7.570312 6.527344 7.570312 6.917969 L 7.570312 7.296875 Z M 16.203125 13.792969 "/>
<path style=" stroke:none;fill-rule:nonzero;fill:rgb(0%,0%,0%);fill-opacity:1;" d="M 16.664062 15.367188 C 16.527344 15.46875 16.363281 15.523438 16.203125 15.523438 C 16.039062 15.523438 15.875 15.46875 15.742188 15.367188 L 7.570312 9.214844 L 7.570312 18.054688 C 7.570312 18.441406 7.882812 18.757812 8.273438 18.757812 L 24.128906 18.757812 C 24.519531 18.757812 24.835938 18.441406 24.835938 18.054688 L 24.835938 9.214844 Z M 16.664062 15.367188 "/>
<path style=" stroke:none;fill-rule:nonzero;fill:rgb(0%,0%,0%);fill-opacity:1;" d="M 6.109375 14.847656 L 2.96875 14.847656 C 2.519531 14.847656 2.152344 14.480469 2.152344 14.03125 L 2.152344 14 C 2.152344 13.550781 2.519531 13.183594 2.96875 13.183594 L 6.109375 13.183594 Z M 6.109375 14.847656 "/>
<path style=" stroke:none;fill-rule:nonzero;fill:rgb(0%,0%,0%);fill-opacity:1;" d="M 6.109375 17.640625 L 0.96875 17.640625 C 0.507812 17.640625 0.136719 17.269531 0.136719 16.808594 C 0.136719 16.351562 0.507812 15.980469 0.96875 15.980469 L 6.109375 15.980469 Z M 6.109375 17.640625 "/>
<path style=" stroke:none;fill-rule:nonzero;fill:rgb(0%,0%,0%);fill-opacity:1;" d="M 6.109375 12.050781 L 4.59375 12.050781 C 4.140625 12.050781 3.777344 11.6875 3.777344 11.234375 L 3.777344 11.207031 C 3.777344 10.753906 4.140625 10.390625 4.59375 10.390625 L 6.109375 10.390625 Z M 6.109375 12.050781 "/>
</g>
</svg>
